<?xml version="1.0" standalone="no"?>
<!DOCTYPE svg PUBLIC "-//W3C//DTD SVG 20010904//EN"
 "http://www.w3.org/TR/2001/REC-SVG-20010904/DTD/svg10.dtd">
<svg version="1.0" xmlns="http://www.w3.org/2000/svg"
 width="48.000000pt" height="48.000000pt" viewBox="0 0 48.000000 48.000000"
 preserveAspectRatio="xMidYMid meet">

<g transform="translate(0.000000,48.000000) scale(0.100000,-0.100000)"
fill="#000000" stroke="none">
<path d="M67 414 c-4 -4 -7 -63 -7 -131 l0 -123 64 0 c62 0 64 1 69 29 11 53
83 53 94 0 5 -28 7 -29 70 -29 l64 0 -3 128 -3 127 -171 3 c-93 1 -173 -1
-177 -4z"/>
<path d="M224 189 c-10 -17 13 -36 27 -22 12 12 4 33 -11 33 -5 0 -12 -5 -16
-11z"/>
<path d="M60 120 c0 -6 67 -10 180 -10 113 0 180 4 180 10 0 6 -67 10 -180 10
-113 0 -180 -4 -180 -10z"/>
<path d="M65 70 c4 -6 73 -10 175 -10 102 0 171 4 175 10 4 7 -57 10 -175 10
-118 0 -179 -3 -175 -10z"/>
</g>
</svg>
